PathFileType	4	(X/Y/Z)	/Users/visionmauri/4_2_1_f_1_Sports2D/4_2_1_f_1_Sports2D_m_person00.trc
DataRate	CameraRate	NumFrames	NumMarkers	Units	OrigDataRate	OrigDataStartFrame	OrigNumFrames
30.0	30.0	7	22	m	30.0	143	382
Frame#	Time	Hip			RHip			RKnee			RAnkle			RBigToe			RSmallToe			RHeel			LHip			LKnee			LAnkle			LBigToe			LSmallToe			LHeel			Neck			Head			Nose			RShoulder			RElbow			RWrist			LShoulder			LElbow			LWrist			
		X1	Y1	Z1	X2	Y2	Z2	X3	Y3	Z3	X4	Y4	Z4	X5	Y5	Z5	X6	Y6	Z6	X7	Y7	Z7	X8	Y8	Z8	X9	Y9	Z9	X10	Y10	Z10	X11	Y11	Z11	X12	Y12	Z12	X13	Y13	Z13	X14	Y14	Z14	X15	Y15	Z15	X16	Y16	Z16	X17	Y17	Z17	X18	Y18	Z18	X19	Y19	Z19	X20	Y20	Z20	X21	Y21	Z21	X22	Y22	Z22
143	4.779177602799649	1.1056773653624508	0.9807628235146255	0.0301	1.177543781257539	0.9635240961981056	0.0301	1.2056480650160537	0.6627414477668616	0.129	1.182738746395995	0.6502792268303114	0.023	1.186351131243663	0.5951910772150385	0.2179	1.191281593575923	0.5380660220213601	0.1804	1.1708743576661413	0.6864604190121112	-0.0119	1.0364853286975264	0.9841763612722704	0.0301	1.0381869873031802	0.6267862861764153	0.129	0.9795037139706517	0.27838964673338057	0.023	1.0315271236694454	0.21714227184590365	0.2179	0.9928170495573252	0.2191323247529456	0.1804	0.959112707262365	0.22502573953595403	-0.0119	1.2729186152162826	1.413050871318419	0.0008	1.4255056949969411	1.5489170713305642	0.0655	1.3895132501880154	1.4176334151235448	0.1076	1.3616404709005339	1.3427068655530312	-0.01275	1.4007819934462074	1.108108797954068	0.0702	1.4955772597977037	0.9121280522467152	0.1076	1.1207568396189473	1.4077941533521257	-0.01275	0.9401776799976204	1.2693558358386714	0.0702	0.9217206343292049	1.0639487780645123	0.1076
144	4.81259842519685	1.1014644454648188	0.9802410257190254	0.0301	1.171218500976918	0.9615530678584508	0.0301	1.2040424695045628	0.6652781156707052	0.129	1.1813087755627292	0.651730563250291	0.023	1.1905516091765769	0.6117656127284469	0.2179	1.1930009064720648	0.5587146193996393	0.1804	1.1689637483789193	0.6873482653258257	-0.0119	1.0338942834173854	0.9850896662548548	0.0301	1.037693973346091	0.6278129183291542	0.129	0.9785053848965221	0.278059500125406	0.023	1.032843814511514	0.2173953854561013	0.2179	0.9941795032504164	0.21831343736938721	0.1804	0.9592784053827974	0.22512573538677766	-0.0119	1.2707600563117913	1.4116249459289993	0.0008	1.4260590305882062	1.5482500984494043	0.0655	1.3884117583712163	1.415127856570449	0.1076	1.3571719585486712	1.3416713798425886	-0.01275	1.3968624720609792	1.108045440677015	0.0702	1.4959987286960024	0.9120609289168125	0.1076	1.1192525174901822	1.4072996495480128	-0.01275	0.9387298377369668	1.2719136630786099	0.0702	0.9366139702891657	1.0686308918715928	0.1076
145	4.84601924759405	1.0979555683684743	0.9806453751200123	0.0301	1.1651254871180807	0.959657757123011	0.0301	1.204056504510736	0.6696964764562224	0.129	1.1794803338813202	0.656130033003246	0.023	1.1912939471551034	0.6239518377928878	0.2179	1.1916290685781552	0.5863271956007672	0.1804	1.165853013436697	0.683521279040475	-0.0119	1.0332678190339044	0.9846970990297786	0.0301	1.0365501274492859	0.626880641076063	0.129	0.9777702682871305	0.27852086199776177	0.023	1.034087575419864	0.21742456907053212	0.2179	0.9936732420579901	0.2186998779646604	0.1804	0.9590134585927294	0.22492644863594094	-0.0119	1.268462638766886	1.4106425320816696	0.0008	1.42697835717795	1.5474149125110004	0.0655	1.3891648336674183	1.4143896902026614	0.1076	1.353079112007936	1.3438401128097348	-0.01275	1.3921787649289936	1.1086674539762884	0.0702	1.4957605728520387	0.912393498302908	0.1076	1.119039852401351	1.4064119257756411	-0.01275	0.9404838473304858	1.2686595071644104	0.0702	0.9572591240749385	1.069904031732897	0.1076
146	4.879440069991251	1.09427121607066	0.9830139071374976	0.0301	1.1603366510228503	0.9609819447795749	0.0301	1.2054699677696095	0.6776851575364522	0.129	1.1790406931912556	0.6682780649737899	0.023	1.1808135265927722	0.5987596796939524	0.2179	1.1856019808561635	0.6052057118193831	0.1804	1.1659211649650232	0.6864156644153231	-0.0119	1.0337887603199234	0.9841204810249716	0.0301	1.034578263480991	0.6255924683819678	0.129	0.9776307042228051	0.2795589120916269	0.023	1.035404405913463	0.21767632561100425	0.2179	0.9930686125008716	0.21975703508663252	0.1804	0.958747410527014	0.22445406056122857	-0.0119	1.2671539857094816	1.4107924727822705	0.0008	1.428742697355606	1.5481630232369707	0.0655	1.3906985630957414	1.4152738012833477	0.1076	1.3491932718113597	1.3476507270934783	-0.01275	1.3878966193586793	1.1100526936279649	0.0702	1.4953939440921633	0.9128431567045433	0.1076	1.1203960814904839	1.4055975298644712	-0.01275	0.9456053231105246	1.260244556187202	0.0702	0.9853865181767124	1.0710869337765578	0.1076
147	4.9128608923884505	1.0904854567654327	0.9854276195871001	0.0301	1.157086892008924	0.964975443523876	0.0301	1.2070087932605538	0.6874656898120171	0.129	1.1825981162875963	0.6842922846272808	0.023	1.154150139854558	0.49294382888522753	0.2179	1.1750497389151078	0.5823005430766991	0.1804	1.1725624450331793	0.6969447976854483	-0.0119	1.0341655170320339	0.9842836375277537	0.0301	1.0321413394172343	0.6245310703580113	0.129	0.9781628591637501	0.2803498248911519	0.023	1.0361751672570825	0.2188514608636652	0.2179	0.9942092063525135	0.22047388773946958	0.1804	0.9587022173309642	0.22408115115306113	-0.0119	1.2670761536932509	1.4109976471271437	0.0008	1.431537140439719	1.5497865951796954	0.0655	1.392256259277063	1.4161712190590252	0.1076	1.345440673020213	1.350839500835738	-0.01275	1.3855224516808986	1.1111755475524465	0.0702	1.4962600526170846	0.9128092882940209	0.1076	1.122293715332508	1.4047606727442494	-0.01275	0.9525494455676139	1.2487022177719922	0.0702	1.0160927726721276	1.0834253333478467	0.1076
148	4.946281714785651	1.0881392101521603	0.9855346024919716	0.0301	1.1540854997354195	0.9675425041787297	0.0301	1.2075740009954479	0.6936929639793656	0.129	1.1873698527941534	0.6630475547615454	0.023	1.1345656402017392	0.33660693790525203	0.2179	1.1672149360455624	0.47452794225312805	0.1804	1.1773293070736115	0.6622569907919758	-0.0119	1.0340364087349745	0.9844964457822548	0.0301	1.029921294374697	0.6232321165679353	0.129	0.9786471290957459	0.27937980781516714	0.023	1.0375594078475425	0.22049743278153408	0.2179	0.9985790400722353	0.22044578736667922	0.1804	0.958509846539829	0.22320643736029688	-0.0119	1.2673441543501627	1.4106093005922753	0.0008	1.4338511581444469	1.550754131370217	0.0655	1.3939852013849783	1.4164998391044226	0.1076	1.341646082405827	1.3534777415470558	-0.01275	1.3845488772867776	1.1125775990750322	0.0702	1.4981578488143061	0.9122933364724153	0.1076	1.1242181477070352	1.4040997132307451	-0.01275	0.9605812631424916	1.2366757628633325	0.0702	1.0393672514711585	1.1142175453886365	0.1076
149	4.979702537182852	1.087814567478458	0.9831278039817799	0.0301	1.1500375519177402	0.9656500640520114	0.0301	1.2066425907833165	0.692165803291175	0.129	1.1853691350163418	0.5505603417285656	0.023	1.163963798195622	0.21896969376814074	0.2179	1.1856470091895523	0.30404880901572623	0.1804	1.1666800092466216	0.5176186515810086	-0.0119	1.033906589364898	0.9837472909266972	0.0301	1.0286069399661493	0.62224798418243	0.129	0.9791711966408554	0.2776410629066378	0.023	1.040722196849086	0.2225115553931502	0.2179	1.0043230552828224	0.22143569569744248	0.1804	0.958231275397152	0.2218171795520529	-0.0119	1.2676088656653965	1.410535627972721	0.0008	1.4341642714586567	1.5511805585256697	0.0655	1.3962029119067343	1.4163699540205141	0.1076	1.3374455341823641	1.3567444682338614	-0.01275	1.3832771482518278	1.1152911196930926	0.0702	1.4994817770640196	0.9121778869214822	0.1076	1.128433731435507	1.4044478662291855	-0.01275	0.9723862235990588	1.225108260899057	0.0702	1.0512083416119833	1.1476765452342979	0.1076
